# xmcd
#
# Track frame offsets:
#	150
#	22640
#	42387
#	64785
#	89190
#	111007
#	131832
#	145195
#	167675
#	188582
#
# Disc length: 2715 seconds
#
# Revision: 6
# Processed by: cddbd v1.5.2PL0 Copyright (c) Steve Scherf et al.
# Submitted via: MusicWizard 7.2.0
#
DISCID=850a990a
DTITLE=Geldof, Bob - Sex, Age and Death
DYEAR=2001
DGENRE=Rock
TTITLE0=One For Me
TTITLE1=$6,000,000 Loser
TTITLE2=Pale White Girls
TTITLE3=The New Routine
TTITLE4=Mudslide
TTITLE5=Mind In Pocket
TTITLE6=My Birthday Suit
TTITLE7=Scream In Vain
TTITLE8=Inside Your Head
TTITLE9=10:15
EXTD=
EXTT0=
EXTT1=
EXTT2=
EXTT3=
EXTT4=
EXTT5=
EXTT6=
EXTT7=
EXTT8=
EXTT9=
PLAYORDER=
